<mxfile host="Electron" modified="2024-10-17T09:10:32.146Z" agent="Mozilla/5.0 (Windows NT 10.0; Win64; x64) AppleWebKit/537.36 (KHTML, like Gecko) draw.io/24.6.1 Chrome/124.0.6367.207 Electron/30.0.6 Safari/537.36" etag="N95RcMsZeCp6fVFULkNI" version="24.6.1" type="device">
  <diagram name="Страница — 1" id="fFnY4qfysY7LJytMYSjC">
    <mxGraphModel dx="4218" dy="1462" grid="0" gridSize="10" guides="1" tooltips="1" connect="1" arrows="1" fold="1" page="1" pageScale="1" pageWidth="3300" pageHeight="2339" math="0" shadow="0">
      <root>
        <mxCell id="0" />
        <mxCell id="1" parent="0" />
        <mxCell id="EXnbJt3QwEgf2czzGakk-9" value="" style="group" parent="1" vertex="1" connectable="0">
          <mxGeometry x="-2330" y="180" width="250" height="80" as="geometry" />
        </mxCell>
        <mxCell id="EXnbJt3QwEgf2czzGakk-6" value="Развиваем внимательность.exe&lt;div&gt;(исполняемый файл)&lt;/div&gt;" style="rounded=0;whiteSpace=wrap;html=1;" parent="EXnbJt3QwEgf2czzGakk-9" vertex="1">
          <mxGeometry x="20" width="230" height="80" as="geometry" />
        </mxCell>
        <mxCell id="EXnbJt3QwEgf2czzGakk-7" value="" style="rounded=0;whiteSpace=wrap;html=1;" parent="EXnbJt3QwEgf2czzGakk-9" vertex="1">
          <mxGeometry y="10" width="40" height="20" as="geometry" />
        </mxCell>
        <mxCell id="EXnbJt3QwEgf2czzGakk-8" value="" style="rounded=0;whiteSpace=wrap;html=1;" parent="EXnbJt3QwEgf2czzGakk-9" vertex="1">
          <mxGeometry y="50" width="40" height="20" as="geometry" />
        </mxCell>
        <mxCell id="EXnbJt3QwEgf2czzGakk-18" value="" style="group" parent="1" vertex="1" connectable="0">
          <mxGeometry x="-2180" y="605" width="200" height="80" as="geometry" />
        </mxCell>
        <mxCell id="EXnbJt3QwEgf2czzGakk-19" value="Unit2.dfm&lt;div&gt;(форма главного меню)&lt;/div&gt;" style="rounded=0;whiteSpace=wrap;html=1;" parent="EXnbJt3QwEgf2czzGakk-18" vertex="1">
          <mxGeometry x="20" width="180" height="80" as="geometry" />
        </mxCell>
        <mxCell id="EXnbJt3QwEgf2czzGakk-20" value="" style="rounded=0;whiteSpace=wrap;html=1;" parent="EXnbJt3QwEgf2czzGakk-18" vertex="1">
          <mxGeometry y="10" width="40" height="20" as="geometry" />
        </mxCell>
        <mxCell id="EXnbJt3QwEgf2czzGakk-21" value="" style="rounded=0;whiteSpace=wrap;html=1;" parent="EXnbJt3QwEgf2czzGakk-18" vertex="1">
          <mxGeometry y="50" width="40" height="20" as="geometry" />
        </mxCell>
        <mxCell id="EXnbJt3QwEgf2czzGakk-22" value="" style="group" parent="1" vertex="1" connectable="0">
          <mxGeometry x="-2540" y="330" width="150" height="80" as="geometry" />
        </mxCell>
        <mxCell id="EXnbJt3QwEgf2czzGakk-23" value="Unit1.pas" style="rounded=0;whiteSpace=wrap;html=1;" parent="EXnbJt3QwEgf2czzGakk-22" vertex="1">
          <mxGeometry x="15" width="135" height="80" as="geometry" />
        </mxCell>
        <mxCell id="EXnbJt3QwEgf2czzGakk-24" value="" style="rounded=0;whiteSpace=wrap;html=1;" parent="EXnbJt3QwEgf2czzGakk-22" vertex="1">
          <mxGeometry y="10" width="30" height="20" as="geometry" />
        </mxCell>
        <mxCell id="EXnbJt3QwEgf2czzGakk-25" value="" style="rounded=0;whiteSpace=wrap;html=1;" parent="EXnbJt3QwEgf2czzGakk-22" vertex="1">
          <mxGeometry y="50" width="30" height="20" as="geometry" />
        </mxCell>
        <mxCell id="EXnbJt3QwEgf2czzGakk-26" value="" style="group" parent="1" vertex="1" connectable="0">
          <mxGeometry x="-2540" y="510" width="150" height="80" as="geometry" />
        </mxCell>
        <mxCell id="EXnbJt3QwEgf2czzGakk-27" value="Unit2.pas" style="rounded=0;whiteSpace=wrap;html=1;" parent="EXnbJt3QwEgf2czzGakk-26" vertex="1">
          <mxGeometry x="15" width="135" height="80" as="geometry" />
        </mxCell>
        <mxCell id="EXnbJt3QwEgf2czzGakk-28" value="" style="rounded=0;whiteSpace=wrap;html=1;" parent="EXnbJt3QwEgf2czzGakk-26" vertex="1">
          <mxGeometry y="10" width="30" height="20" as="geometry" />
        </mxCell>
        <mxCell id="EXnbJt3QwEgf2czzGakk-29" value="" style="rounded=0;whiteSpace=wrap;html=1;" parent="EXnbJt3QwEgf2czzGakk-26" vertex="1">
          <mxGeometry y="50" width="30" height="20" as="geometry" />
        </mxCell>
        <mxCell id="EXnbJt3QwEgf2czzGakk-30" style="edgeStyle=orthogonalEdgeStyle;rounded=0;orthogonalLoop=1;jettySize=auto;html=1;dashed=1;exitX=0.391;exitY=1.007;exitDx=0;exitDy=0;exitPerimeter=0;" parent="1" source="EXnbJt3QwEgf2czzGakk-6" edge="1">
          <mxGeometry relative="1" as="geometry">
            <mxPoint x="-2219.9411764705883" y="300" as="targetPoint" />
          </mxGeometry>
        </mxCell>
        <mxCell id="EXnbJt3QwEgf2czzGakk-31" style="edgeStyle=orthogonalEdgeStyle;rounded=0;orthogonalLoop=1;jettySize=auto;html=1;entryX=0.5;entryY=0;entryDx=0;entryDy=0;dashed=1;" parent="1" edge="1">
          <mxGeometry relative="1" as="geometry">
            <mxPoint x="-2220" y="380" as="sourcePoint" />
            <mxPoint x="-2220" y="430" as="targetPoint" />
          </mxGeometry>
        </mxCell>
        <mxCell id="EXnbJt3QwEgf2czzGakk-32" style="rounded=0;orthogonalLoop=1;jettySize=auto;html=1;dashed=1;" parent="1" target="EXnbJt3QwEgf2czzGakk-23" edge="1">
          <mxGeometry relative="1" as="geometry">
            <mxPoint x="-2310" y="432.1052631578948" as="sourcePoint" />
          </mxGeometry>
        </mxCell>
        <mxCell id="EXnbJt3QwEgf2czzGakk-33" style="rounded=0;orthogonalLoop=1;jettySize=auto;html=1;dashed=1;" parent="1" target="EXnbJt3QwEgf2czzGakk-27" edge="1">
          <mxGeometry relative="1" as="geometry">
            <mxPoint x="-2160" y="650" as="sourcePoint" />
          </mxGeometry>
        </mxCell>
        <mxCell id="EXnbJt3QwEgf2czzGakk-34" value="" style="group" parent="1" vertex="1" connectable="0">
          <mxGeometry x="-1870" y="670" width="200" height="80" as="geometry" />
        </mxCell>
        <mxCell id="EXnbJt3QwEgf2czzGakk-35" value="Unit3.dfm&lt;div&gt;(форма игры)&lt;/div&gt;" style="rounded=0;whiteSpace=wrap;html=1;" parent="EXnbJt3QwEgf2czzGakk-34" vertex="1">
          <mxGeometry x="20" width="180" height="80" as="geometry" />
        </mxCell>
        <mxCell id="EXnbJt3QwEgf2czzGakk-36" value="" style="rounded=0;whiteSpace=wrap;html=1;" parent="EXnbJt3QwEgf2czzGakk-34" vertex="1">
          <mxGeometry y="10" width="40" height="20" as="geometry" />
        </mxCell>
        <mxCell id="EXnbJt3QwEgf2czzGakk-37" value="" style="rounded=0;whiteSpace=wrap;html=1;" parent="EXnbJt3QwEgf2czzGakk-34" vertex="1">
          <mxGeometry y="50" width="40" height="20" as="geometry" />
        </mxCell>
        <mxCell id="EXnbJt3QwEgf2czzGakk-40" value="" style="group" parent="1" vertex="1" connectable="0">
          <mxGeometry x="-2140" y="910" width="200" height="80" as="geometry" />
        </mxCell>
        <mxCell id="EXnbJt3QwEgf2czzGakk-101" style="rounded=0;orthogonalLoop=1;jettySize=auto;html=1;dashed=1;" parent="EXnbJt3QwEgf2czzGakk-40" source="EXnbJt3QwEgf2czzGakk-41" edge="1">
          <mxGeometry relative="1" as="geometry">
            <mxPoint x="-90" y="50" as="targetPoint" />
          </mxGeometry>
        </mxCell>
        <mxCell id="EXnbJt3QwEgf2czzGakk-41" value="Unit5.dfm&lt;div&gt;(статистика)&lt;/div&gt;" style="rounded=0;whiteSpace=wrap;html=1;" parent="EXnbJt3QwEgf2czzGakk-40" vertex="1">
          <mxGeometry x="20" width="180" height="80" as="geometry" />
        </mxCell>
        <mxCell id="EXnbJt3QwEgf2czzGakk-42" value="" style="rounded=0;whiteSpace=wrap;html=1;" parent="EXnbJt3QwEgf2czzGakk-40" vertex="1">
          <mxGeometry y="10" width="40" height="20" as="geometry" />
        </mxCell>
        <mxCell id="EXnbJt3QwEgf2czzGakk-43" value="" style="rounded=0;whiteSpace=wrap;html=1;" parent="EXnbJt3QwEgf2czzGakk-40" vertex="1">
          <mxGeometry y="50" width="40" height="20" as="geometry" />
        </mxCell>
        <mxCell id="EXnbJt3QwEgf2czzGakk-44" value="" style="group" parent="1" vertex="1" connectable="0">
          <mxGeometry x="-1856.24" y="790" width="160" height="80" as="geometry" />
        </mxCell>
        <mxCell id="EXnbJt3QwEgf2czzGakk-45" value="Unit4.pas" style="rounded=0;whiteSpace=wrap;html=1;" parent="EXnbJt3QwEgf2czzGakk-44" vertex="1">
          <mxGeometry x="16" width="144.00000000000003" height="80" as="geometry" />
        </mxCell>
        <mxCell id="EXnbJt3QwEgf2czzGakk-46" value="" style="rounded=0;whiteSpace=wrap;html=1;" parent="EXnbJt3QwEgf2czzGakk-44" vertex="1">
          <mxGeometry y="10" width="32" height="20" as="geometry" />
        </mxCell>
        <mxCell id="EXnbJt3QwEgf2czzGakk-47" value="" style="rounded=0;whiteSpace=wrap;html=1;" parent="EXnbJt3QwEgf2czzGakk-44" vertex="1">
          <mxGeometry y="50" width="32" height="20" as="geometry" />
        </mxCell>
        <mxCell id="EXnbJt3QwEgf2czzGakk-76" value="" style="group" parent="1" vertex="1" connectable="0">
          <mxGeometry x="-2520" y="650" width="130" height="70" as="geometry" />
        </mxCell>
        <mxCell id="EXnbJt3QwEgf2czzGakk-38" value="" style="shape=cylinder3;whiteSpace=wrap;html=1;boundedLbl=1;backgroundOutline=1;size=15;rotation=90;" parent="EXnbJt3QwEgf2czzGakk-76" vertex="1">
          <mxGeometry x="35" y="-35" width="60" height="130" as="geometry" />
        </mxCell>
        <mxCell id="EXnbJt3QwEgf2czzGakk-39" value="&lt;p style=&quot;text-align: justify; margin-top: 0px;&quot;&gt;&lt;font face=&quot;Times New Roman&quot; style=&quot;font-size: 14px;&quot;&gt;Справка.chm (Справка)&lt;/font&gt;&lt;/p&gt;" style="text;html=1;whiteSpace=wrap;overflow=hidden;rounded=0;" parent="EXnbJt3QwEgf2czzGakk-76" vertex="1">
          <mxGeometry x="10" y="10" width="100" height="60" as="geometry" />
        </mxCell>
        <mxCell id="EXnbJt3QwEgf2czzGakk-80" value="" style="shape=cylinder3;whiteSpace=wrap;html=1;boundedLbl=1;backgroundOutline=1;size=15;rotation=90;" parent="1" vertex="1">
          <mxGeometry x="-1923.12" y="390" width="60" height="188.75" as="geometry" />
        </mxCell>
        <mxCell id="EXnbJt3QwEgf2czzGakk-81" value="&lt;p style=&quot;margin-top: 0px;&quot;&gt;&lt;font face=&quot;Times New Roman&quot; style=&quot;font-size: 14px;&quot;&gt;*.bmp&amp;nbsp;&lt;/font&gt;&lt;span style=&quot;font-size: 14px; font-family: &amp;quot;Times New Roman&amp;quot;; background-color: initial;&quot;&gt;(фон)&lt;/span&gt;&lt;/p&gt;" style="text;html=1;whiteSpace=wrap;overflow=hidden;rounded=0;align=center;" parent="1" vertex="1">
          <mxGeometry x="-1970" y="464.37" width="130" height="60" as="geometry" />
        </mxCell>
        <mxCell id="EXnbJt3QwEgf2czzGakk-82" value="" style="group" parent="1" vertex="1" connectable="0">
          <mxGeometry x="-1845" y="560" width="150" height="80" as="geometry" />
        </mxCell>
        <mxCell id="EXnbJt3QwEgf2czzGakk-83" value="Unit3.pas" style="rounded=0;whiteSpace=wrap;html=1;" parent="EXnbJt3QwEgf2czzGakk-82" vertex="1">
          <mxGeometry x="15" width="135" height="80" as="geometry" />
        </mxCell>
        <mxCell id="EXnbJt3QwEgf2czzGakk-84" value="" style="rounded=0;whiteSpace=wrap;html=1;" parent="EXnbJt3QwEgf2czzGakk-82" vertex="1">
          <mxGeometry y="10" width="30" height="20" as="geometry" />
        </mxCell>
        <mxCell id="EXnbJt3QwEgf2czzGakk-85" value="" style="rounded=0;whiteSpace=wrap;html=1;" parent="EXnbJt3QwEgf2czzGakk-82" vertex="1">
          <mxGeometry y="50" width="30" height="20" as="geometry" />
        </mxCell>
        <mxCell id="EXnbJt3QwEgf2czzGakk-90" style="rounded=0;orthogonalLoop=1;jettySize=auto;html=1;dashed=1;" parent="1" source="EXnbJt3QwEgf2czzGakk-35" target="EXnbJt3QwEgf2czzGakk-83" edge="1">
          <mxGeometry relative="1" as="geometry" />
        </mxCell>
        <mxCell id="EXnbJt3QwEgf2czzGakk-92" style="rounded=0;orthogonalLoop=1;jettySize=auto;html=1;dashed=1;entryX=0;entryY=0;entryDx=0;entryDy=0;" parent="1" source="EXnbJt3QwEgf2czzGakk-19" target="EXnbJt3QwEgf2czzGakk-35" edge="1">
          <mxGeometry relative="1" as="geometry" />
        </mxCell>
        <mxCell id="EXnbJt3QwEgf2czzGakk-93" style="rounded=0;orthogonalLoop=1;jettySize=auto;html=1;dashed=1;" parent="1" source="EXnbJt3QwEgf2czzGakk-35" target="EXnbJt3QwEgf2czzGakk-45" edge="1">
          <mxGeometry relative="1" as="geometry" />
        </mxCell>
        <mxCell id="EXnbJt3QwEgf2czzGakk-94" style="rounded=0;orthogonalLoop=1;jettySize=auto;html=1;entryX=0.5;entryY=1;entryDx=0;entryDy=0;entryPerimeter=0;dashed=1;" parent="1" target="EXnbJt3QwEgf2czzGakk-78" edge="1">
          <mxGeometry relative="1" as="geometry">
            <mxPoint x="-2060" y="600" as="sourcePoint" />
          </mxGeometry>
        </mxCell>
        <mxCell id="EXnbJt3QwEgf2czzGakk-95" style="rounded=0;orthogonalLoop=1;jettySize=auto;html=1;entryX=0.5;entryY=1;entryDx=0;entryDy=0;entryPerimeter=0;dashed=1;exitX=0.75;exitY=0;exitDx=0;exitDy=0;" parent="1" source="EXnbJt3QwEgf2czzGakk-19" target="EXnbJt3QwEgf2czzGakk-80" edge="1">
          <mxGeometry relative="1" as="geometry" />
        </mxCell>
        <mxCell id="EXnbJt3QwEgf2czzGakk-96" value="" style="group" parent="1" vertex="1" connectable="0">
          <mxGeometry x="-2380" y="920" width="150" height="80" as="geometry" />
        </mxCell>
        <mxCell id="EXnbJt3QwEgf2czzGakk-97" value="Unit5.pas" style="rounded=0;whiteSpace=wrap;html=1;" parent="EXnbJt3QwEgf2czzGakk-96" vertex="1">
          <mxGeometry x="15" width="135" height="80" as="geometry" />
        </mxCell>
        <mxCell id="EXnbJt3QwEgf2czzGakk-98" value="" style="rounded=0;whiteSpace=wrap;html=1;" parent="EXnbJt3QwEgf2czzGakk-96" vertex="1">
          <mxGeometry y="10" width="30" height="20" as="geometry" />
        </mxCell>
        <mxCell id="EXnbJt3QwEgf2czzGakk-99" value="" style="rounded=0;whiteSpace=wrap;html=1;" parent="EXnbJt3QwEgf2czzGakk-96" vertex="1">
          <mxGeometry y="50" width="30" height="20" as="geometry" />
        </mxCell>
        <mxCell id="EXnbJt3QwEgf2czzGakk-100" style="rounded=0;orthogonalLoop=1;jettySize=auto;html=1;dashed=1;" parent="1" source="EXnbJt3QwEgf2czzGakk-19" target="EXnbJt3QwEgf2czzGakk-41" edge="1">
          <mxGeometry relative="1" as="geometry" />
        </mxCell>
        <mxCell id="EXnbJt3QwEgf2czzGakk-104" style="rounded=0;orthogonalLoop=1;jettySize=auto;html=1;dashed=1;entryX=0.5;entryY=1;entryDx=0;entryDy=0;entryPerimeter=0;" parent="1" source="EXnbJt3QwEgf2czzGakk-41" target="EXnbJt3QwEgf2czzGakk-126" edge="1">
          <mxGeometry relative="1" as="geometry">
            <mxPoint x="-1820" y="936" as="targetPoint" />
          </mxGeometry>
        </mxCell>
        <mxCell id="EXnbJt3QwEgf2czzGakk-126" value="" style="shape=cylinder3;whiteSpace=wrap;html=1;boundedLbl=1;backgroundOutline=1;size=15;rotation=90;" parent="1" vertex="1">
          <mxGeometry x="-1893.12" y="970" width="60" height="188.75" as="geometry" />
        </mxCell>
        <mxCell id="EXnbJt3QwEgf2czzGakk-127" value="&lt;p style=&quot;margin-top: 0px;&quot;&gt;&lt;font face=&quot;Times New Roman&quot; style=&quot;font-size: 14px;&quot;&gt;*.txt&amp;nbsp;&lt;/font&gt;&lt;span style=&quot;font-size: 14px; font-family: &amp;quot;Times New Roman&amp;quot;; background-color: initial;&quot;&gt;(результат прохождения уровня)&lt;/span&gt;&lt;/p&gt;" style="text;html=1;whiteSpace=wrap;overflow=hidden;rounded=0;align=center;" parent="1" vertex="1">
          <mxGeometry x="-1940" y="1044.37" width="140" height="60" as="geometry" />
        </mxCell>
        <mxCell id="EXnbJt3QwEgf2czzGakk-132" style="rounded=0;orthogonalLoop=1;jettySize=auto;html=1;entryX=0.5;entryY=0;entryDx=0;entryDy=0;dashed=1;" parent="1" target="EXnbJt3QwEgf2czzGakk-19" edge="1">
          <mxGeometry relative="1" as="geometry">
            <mxPoint x="-2175.5555555555557" y="510" as="sourcePoint" />
          </mxGeometry>
        </mxCell>
        <mxCell id="3QJ6Krn3v7N5pQTsft51-1" style="rounded=0;orthogonalLoop=1;jettySize=auto;html=1;entryX=0.5;entryY=0;entryDx=0;entryDy=0;entryPerimeter=0;dashed=1;" parent="1" source="EXnbJt3QwEgf2czzGakk-19" target="EXnbJt3QwEgf2czzGakk-38" edge="1">
          <mxGeometry relative="1" as="geometry" />
        </mxCell>
        <mxCell id="I_2noDEeE7oSbc9L-IS--1" value="" style="group" parent="1" vertex="1" connectable="0">
          <mxGeometry x="-2330" y="300" width="250" height="80" as="geometry" />
        </mxCell>
        <mxCell id="I_2noDEeE7oSbc9L-IS--2" value="Развиваем внимательность.dpr&lt;div&gt;(файл проекта)&lt;/div&gt;" style="rounded=0;whiteSpace=wrap;html=1;" parent="I_2noDEeE7oSbc9L-IS--1" vertex="1">
          <mxGeometry x="20" width="230" height="80" as="geometry" />
        </mxCell>
        <mxCell id="I_2noDEeE7oSbc9L-IS--3" value="" style="rounded=0;whiteSpace=wrap;html=1;" parent="I_2noDEeE7oSbc9L-IS--1" vertex="1">
          <mxGeometry y="10" width="40" height="20" as="geometry" />
        </mxCell>
        <mxCell id="I_2noDEeE7oSbc9L-IS--4" value="" style="rounded=0;whiteSpace=wrap;html=1;" parent="I_2noDEeE7oSbc9L-IS--1" vertex="1">
          <mxGeometry y="50" width="40" height="20" as="geometry" />
        </mxCell>
        <mxCell id="I_2noDEeE7oSbc9L-IS--5" value="" style="group" parent="1" vertex="1" connectable="0">
          <mxGeometry x="-2330" y="430" width="250" height="80" as="geometry" />
        </mxCell>
        <mxCell id="I_2noDEeE7oSbc9L-IS--6" value="Unit1.dfm&lt;div&gt;(форма заставки)&lt;/div&gt;" style="rounded=0;whiteSpace=wrap;html=1;" parent="I_2noDEeE7oSbc9L-IS--5" vertex="1">
          <mxGeometry x="20" width="230" height="80" as="geometry" />
        </mxCell>
        <mxCell id="I_2noDEeE7oSbc9L-IS--7" value="" style="rounded=0;whiteSpace=wrap;html=1;" parent="I_2noDEeE7oSbc9L-IS--5" vertex="1">
          <mxGeometry y="10" width="40" height="20" as="geometry" />
        </mxCell>
        <mxCell id="I_2noDEeE7oSbc9L-IS--8" value="" style="rounded=0;whiteSpace=wrap;html=1;" parent="I_2noDEeE7oSbc9L-IS--5" vertex="1">
          <mxGeometry y="50" width="40" height="20" as="geometry" />
        </mxCell>
        <mxCell id="EXnbJt3QwEgf2czzGakk-78" value="" style="shape=cylinder3;whiteSpace=wrap;html=1;boundedLbl=1;backgroundOutline=1;size=15;rotation=90;" parent="1" vertex="1">
          <mxGeometry x="-1980.62" y="310" width="60" height="188.75" as="geometry" />
        </mxCell>
        <mxCell id="EXnbJt3QwEgf2czzGakk-79" value="&lt;p style=&quot;margin-top: 0px;&quot;&gt;&lt;font face=&quot;Times New Roman&quot; style=&quot;font-size: 14px;&quot;&gt;*.mp3&amp;nbsp;&lt;/font&gt;&lt;span style=&quot;font-size: 14px; font-family: &amp;quot;Times New Roman&amp;quot;; background-color: initial;&quot;&gt;(музыка)&lt;/span&gt;&lt;/p&gt;" style="text;html=1;whiteSpace=wrap;overflow=hidden;rounded=0;align=center;" parent="1" vertex="1">
          <mxGeometry x="-2027.5" y="384.37" width="130" height="60" as="geometry" />
        </mxCell>
        <mxCell id="I_2noDEeE7oSbc9L-IS--9" style="rounded=0;orthogonalLoop=1;jettySize=auto;html=1;dashed=1;entryX=0.5;entryY=1;entryDx=0;entryDy=0;exitX=1;exitY=0.25;exitDx=0;exitDy=0;" parent="1" source="EXnbJt3QwEgf2czzGakk-41" target="EXnbJt3QwEgf2czzGakk-45" edge="1">
          <mxGeometry relative="1" as="geometry">
            <mxPoint x="-2006" y="1000" as="sourcePoint" />
            <mxPoint x="-1979" y="1080" as="targetPoint" />
          </mxGeometry>
        </mxCell>
        <mxCell id="I_2noDEeE7oSbc9L-IS--10" value="" style="shape=cylinder3;whiteSpace=wrap;html=1;boundedLbl=1;backgroundOutline=1;size=15;rotation=90;" parent="1" vertex="1">
          <mxGeometry x="-2386.56" y="676.56" width="66.88" height="168.75" as="geometry" />
        </mxCell>
        <mxCell id="I_2noDEeE7oSbc9L-IS--11" value="&lt;p style=&quot;margin-top: 0px;&quot;&gt;&lt;font face=&quot;Times New Roman&quot; style=&quot;font-size: 14px;&quot;&gt;*.txt&amp;nbsp;&lt;/font&gt;&lt;span style=&quot;font-size: 14px; font-family: &amp;quot;Times New Roman&amp;quot;; background-color: initial;&quot;&gt;(правила)&lt;/span&gt;&lt;/p&gt;" style="text;html=1;whiteSpace=wrap;overflow=hidden;rounded=0;align=center;" parent="1" vertex="1">
          <mxGeometry x="-2430" y="744.3699999999999" width="140" height="60" as="geometry" />
        </mxCell>
        <mxCell id="I_2noDEeE7oSbc9L-IS--12" style="rounded=0;orthogonalLoop=1;jettySize=auto;html=1;dashed=1;entryX=0.5;entryY=0;entryDx=0;entryDy=0;entryPerimeter=0;exitX=0.25;exitY=1;exitDx=0;exitDy=0;" parent="1" source="EXnbJt3QwEgf2czzGakk-19" target="I_2noDEeE7oSbc9L-IS--10" edge="1">
          <mxGeometry relative="1" as="geometry">
            <mxPoint x="-2220" y="970" as="targetPoint" />
            <mxPoint x="-2110" y="965" as="sourcePoint" />
          </mxGeometry>
        </mxCell>
      </root>
    </mxGraphModel>
  </diagram>
</mxfile>
